<svg id="Capa_1" enable-background="new 0 0 497 497" height="24" viewBox="0 0 497 497" width="24" xmlns="http://www.w3.org/2000/svg"><g><g><path d="m282.159 497h-67.319c-5.014 0-9.331-3.539-10.314-8.456l-9.529-47.643h107.004l-9.529 47.643c-.982 4.917-5.299 8.456-10.313 8.456z" fill="#b1abb4"/></g><g><path d="m272.002 440.901-9.529 47.643c-.983 4.917-5.3 8.456-10.314 8.456h30c5.014 0 9.331-3.539 10.314-8.456l9.529-47.643z" fill="#a29aa5"/></g><path d="m302.997 418.462c12.392 0 22.438-10.047 22.438-22.44s-10.046-22.439-22.439-22.439l-54.496-20-54.496 20c-12.393 0-22.439 10.046-22.439 22.439s10.046 22.439 22.438 22.44c-12.392.001-22.438 10.047-22.438 22.439 0 12.393 10.047 22.439 22.44 22.439h108.992c12.393 0 22.439-10.047 22.439-22.439-.001-12.392-10.046-22.439-22.439-22.439z" fill="#f6f6f6"/><path d="m302.996 418.462c12.393 0 22.439-10.047 22.439-22.44s-10.046-22.439-22.439-22.439l-13.031-10-16.969 10c12.393 0 22.439 10.046 22.439 22.439s-10.046 22.44-22.439 22.44c12.393 0 22.439 10.047 22.439 22.439 0 12.393-10.046 22.439-22.439 22.439h30c12.393 0 22.439-10.047 22.439-22.439 0-12.393-10.046-22.439-22.439-22.439z" fill="#eaeaea"/><g><path d="m405.577 157.077c0-87.128-70.938-157.688-158.209-157.073-85.121.6-154.794 69.813-155.93 154.929-.489 36.674 11.595 70.504 32.213 97.463 23.117 30.226 35.092 67.512 35.092 105.565v1.372c0 7.87 6.38 14.25 14.25 14.25h151.017c7.87 0 14.25-6.38 14.25-14.25 0-38.726 12.155-76.653 35.537-107.523 19.945-26.334 31.78-59.15 31.78-94.733z" fill="#f7e365"/></g><g><path d="m247.367.004c-4.64.033-9.23.281-13.769.713 79.668 7.598 141.978 74.702 141.978 156.359 0 35.583-11.835 68.4-31.781 94.734-23.382 30.87-35.537 68.797-35.537 107.523 0 7.87-6.38 14.25-14.25 14.25h30c7.87 0 14.25-6.38 14.25-14.25 0-38.726 12.155-76.653 35.537-107.523 19.946-26.334 31.781-59.15 31.781-94.734.001-87.128-70.938-157.687-158.209-157.072z" fill="#f0d944"/></g><path d="m326.359 109.713c-3.749-1.763-8.216-.154-9.979 3.594l-10.465 22.244c-.075-.049-.145-.103-.222-.149-35.277-21.166-79.107-21.166-114.385 0-.077.046-.147.1-.222.149l-10.465-22.244c-1.764-3.748-6.231-5.357-9.98-3.594-3.748 1.764-5.357 6.231-3.594 9.979l39.048 82.998c6.613 14.056 10.108 29.696 10.108 45.229v11.246 2.333 112.083h15v-106.914h34.594v106.916h15v-112.083-2.333-11.247c0-15.533 3.496-31.173 10.108-45.229l39.048-82.998c1.763-3.748.154-8.216-3.594-9.98zm-49.027 86.592c-7.546 16.041-11.535 33.889-11.535 51.615v3.746h-34.594v-3.746c0-17.726-3.989-35.574-11.535-51.615l-22.263-47.321c.555-.174 1.099-.408 1.62-.72 30.517-18.311 68.433-18.311 98.949 0 .521.313 1.067.541 1.623.715z" fill="#dbb72b"/></g></svg>