<?xml version="1.0" encoding="iso-8859-1"?>
<!-- Generator: Adobe Illustrator 19.0.0, SVG Export Plug-In . SVG Version: 6.00 Build 0)  -->
<svg version="1.1" id="Capa_1" xmlns="http://www.w3.org/2000/svg" xmlns:xlink="http://www.w3.org/1999/xlink" x="0px" y="0px"
	 viewBox="0 0 512 512" style="enable-background:new 0 0 512 512;" xml:space="preserve">
<path style="fill:#DCF4FF;" d="M512,492H0V20h403.213L512,128.787V492z"/>
<polygon style="fill:#CCEFFF;" points="403.213,20 256,20 256,492 512,492 512,128.787 "/>
<path style="fill:#0A4EAF;" d="M403.213,20H396v175H116V20H0v472h116V315c0-16.568,13.431-30,30-30h220c16.569,0,30,13.432,30,30
	v177h116V128.787L403.213,20z"/>
<g>
	<rect x="296" y="20" style="fill:#063E8B;" width="40" height="115"/>
	<path style="fill:#063E8B;" d="M403.213,20H396v175H256v90h110c16.569,0,30,13.432,30,30v177h116V128.787L403.213,20z"/>
</g>
<g>
</g>
<g>
</g>
<g>
</g>
<g>
</g>
<g>
</g>
<g>
</g>
<g>
</g>
<g>
</g>
<g>
</g>
<g>
</g>
<g>
</g>
<g>
</g>
<g>
</g>
<g>
</g>
<g>
</g>
</svg>
