<svg height="511pt" viewBox="1 -55 511.99899 511" width="511pt" xmlns="http://www.w3.org/2000/svg"><path d="m349.703125 77.675781h-225.726563v-77.175781l-123.976562 123.980469 123.976562 123.976562v-79.765625h225.726563c39.304687 0 71.28125 31.976563 71.28125 71.277344 0 39.304688-31.976563 71.28125-71.28125 71.28125h-257.425781v91.015625h257.425781c89.492187 0 162.296875-72.804687 162.296875-162.296875 0-89.488281-72.804688-162.292969-162.296875-162.292969zm0 0" fill="#fb4c2e"/><path d="m349.703125 77.675781h-84.410156v91.015625h84.410156c39.304687 0 71.28125 31.976563 71.28125 71.277344 0 39.304688-31.976563 71.28125-71.28125 71.28125h-84.410156v91.015625h84.410156c89.492187 0 162.296875-72.804687 162.296875-162.296875 0-89.488281-72.804688-162.292969-162.296875-162.292969zm0 0" fill="#de1617"/></svg>